<mxfile host="65bd71144e">
    <diagram name="Flujo Principal BPMN" id="bpmnFlowV2">
        <mxGraphModel dx="2472" dy="1722" grid="1" gridSize="10" guides="1" tooltips="1" connect="1" arrows="1" fold="1" page="1" pageScale="1" pageWidth="827" pageHeight="1169" math="0" shadow="0">
            <root>
                <mxCell id="0"/>
                <mxCell id="1" parent="0"/>
                <mxCell id="2" value="Inicio: subir .md" style="ellipse;whiteSpace=wrap;html=1;aspect=fixed;" parent="1" vertex="1">
                    <mxGeometry x="60" y="120" width="80" height="80" as="geometry"/>
                </mxCell>
                <mxCell id="3" value="Validar extensión y tamaño" style="rounded=1;whiteSpace=wrap;html=1;" parent="1" vertex="1">
                    <mxGeometry x="180" y="120" width="190" height="60" as="geometry"/>
                </mxCell>
                <mxCell id="4" value="¿Archivo válido?" style="rhombus;whiteSpace=wrap;html=1;" parent="1" vertex="1">
                    <mxGeometry x="400" y="110" width="80" height="80" as="geometry"/>
                </mxCell>
                <mxCell id="5" value="Retornar error JSON" style="rounded=1;whiteSpace=wrap;html=1;fillColor=#f8cecc;" parent="1" vertex="1">
                    <mxGeometry x="380" y="220" width="170" height="60" as="geometry"/>
                </mxCell>
                <mxCell id="6" value="Generar UUID y registrar log" style="rounded=1;whiteSpace=wrap;html=1;" parent="1" vertex="1">
                    <mxGeometry x="510" y="120" width="220" height="60" as="geometry"/>
                </mxCell>
                <mxCell id="7" value="Convertir md → HTML → PDF" style="rounded=1;whiteSpace=wrap;html=1;" parent="1" vertex="1">
                    <mxGeometry x="760" y="120" width="220" height="60" as="geometry"/>
                </mxCell>
                <mxCell id="8" value="Almacenar PDF temporal" style="rounded=1;whiteSpace=wrap;html=1;" parent="1" vertex="1">
                    <mxGeometry x="1010" y="120" width="200" height="60" as="geometry"/>
                </mxCell>
                <mxCell id="9" value="Retornar JSON con URL descarga" style="rounded=1;whiteSpace=wrap;html=1;" parent="1" vertex="1">
                    <mxGeometry x="1240" y="120" width="240" height="60" as="geometry"/>
                </mxCell>
                <mxCell id="10" value="Fin: descarga PDF" style="ellipse;whiteSpace=wrap;html=1;aspect=fixed;" parent="1" vertex="1">
                    <mxGeometry x="1510" y="120" width="80" height="80" as="geometry"/>
                </mxCell>
                <mxCell id="11" parent="1" source="2" target="3" edge="1">
                    <mxGeometry relative="1" as="geometry"/>
                </mxCell>
                <mxCell id="12" parent="1" source="3" target="4" edge="1">
                    <mxGeometry relative="1" as="geometry"/>
                </mxCell>
                <mxCell id="13" parent="1" source="4" target="5" edge="1">
                    <mxGeometry relative="1" as="geometry"/>
                </mxCell>
                <mxCell id="14" parent="1" source="4" target="6" edge="1">
                    <mxGeometry relative="1" as="geometry"/>
                </mxCell>
                <mxCell id="15" parent="1" source="6" target="7" edge="1">
                    <mxGeometry relative="1" as="geometry"/>
                </mxCell>
                <mxCell id="16" parent="1" source="7" target="8" edge="1">
                    <mxGeometry relative="1" as="geometry"/>
                </mxCell>
                <mxCell id="17" parent="1" source="8" target="9" edge="1">
                    <mxGeometry relative="1" as="geometry"/>
                </mxCell>
                <mxCell id="18" parent="1" source="9" target="10" edge="1">
                    <mxGeometry relative="1" as="geometry"/>
                </mxCell>
                <mxCell id="19" value="Flujo de operacion principal resumida" style="swimlane;horizontal=0;whiteSpace=wrap;html=1;" vertex="1" parent="1">
                    <mxGeometry x="10" y="40" width="1630" height="280" as="geometry"/>
                </mxCell>
                <mxCell id="20" value="Inicio (Usuario)" style="ellipse;whiteSpace=wrap;html=1;aspect=fixed;" vertex="1" parent="1">
                    <mxGeometry x="60" y="440" width="100" height="60" as="geometry"/>
                </mxCell>
                <mxCell id="21" value="Carga de archivos .md" style="rounded=1;whiteSpace=wrap;html=1;" vertex="1" parent="1">
                    <mxGeometry x="220" y="440" width="200" height="60" as="geometry"/>
                </mxCell>
                <mxCell id="22" value="Validar extensión .md y tamaño" style="rounded=1;whiteSpace=wrap;html=1;" vertex="1" parent="1">
                    <mxGeometry x="460" y="440" width="220" height="60" as="geometry"/>
                </mxCell>
                <mxCell id="23" value="Generar UUID y registrar log" style="rounded=1;whiteSpace=wrap;html=1;" vertex="1" parent="1">
                    <mxGeometry x="720" y="440" width="240" height="60" as="geometry"/>
                </mxCell>
                <mxCell id="24" value="Convertir .md → HTML → PDF" style="rounded=1;whiteSpace=wrap;html=1;" vertex="1" parent="1">
                    <mxGeometry x="1000" y="440" width="240" height="60" as="geometry"/>
                </mxCell>
                <mxCell id="25" value="Almacenar PDF temporal" style="rounded=1;whiteSpace=wrap;html=1;" vertex="1" parent="1">
                    <mxGeometry x="1280" y="440" width="200" height="60" as="geometry"/>
                </mxCell>
                <mxCell id="26" value="Retornar JSON con URL descarga" style="rounded=1;whiteSpace=wrap;html=1;" vertex="1" parent="1">
                    <mxGeometry x="1520" y="440" width="240" height="60" as="geometry"/>
                </mxCell>
                <mxCell id="27" value="Descargar PDF vía GET /download/:id" style="rounded=1;whiteSpace=wrap;html=1;" vertex="1" parent="1">
                    <mxGeometry x="1800" y="440" width="260" height="60" as="geometry"/>
                </mxCell>
                <mxCell id="28" value="Fin" style="ellipse;whiteSpace=wrap;html=1;aspect=fixed;" vertex="1" parent="1">
                    <mxGeometry x="2100" y="440" width="100" height="60" as="geometry"/>
                </mxCell>
                <mxCell id="29" edge="1" parent="1" source="20" target="21">
                    <mxGeometry relative="1" as="geometry"/>
                </mxCell>
                <mxCell id="30" edge="1" parent="1" source="21" target="22">
                    <mxGeometry relative="1" as="geometry"/>
                </mxCell>
                <mxCell id="31" edge="1" parent="1" source="22" target="23">
                    <mxGeometry relative="1" as="geometry"/>
                </mxCell>
                <mxCell id="32" edge="1" parent="1" source="23" target="24">
                    <mxGeometry relative="1" as="geometry"/>
                </mxCell>
                <mxCell id="33" edge="1" parent="1" source="24" target="25">
                    <mxGeometry relative="1" as="geometry"/>
                </mxCell>
                <mxCell id="34" edge="1" parent="1" source="25" target="26">
                    <mxGeometry relative="1" as="geometry"/>
                </mxCell>
                <mxCell id="35" edge="1" parent="1" source="26" target="27">
                    <mxGeometry relative="1" as="geometry"/>
                </mxCell>
                <mxCell id="36" edge="1" parent="1" source="27" target="28">
                    <mxGeometry relative="1" as="geometry"/>
                </mxCell>
                <mxCell id="37" value="Endpoint POST /convert" style="rounded=1;whiteSpace=wrap;html=1;" vertex="1" parent="1">
                    <mxGeometry x="460" y="540" width="220" height="50" as="geometry"/>
                </mxCell>
                <mxCell id="38" value="Endpoint GET /healthz" style="rounded=1;whiteSpace=wrap;html=1;" vertex="1" parent="1">
                    <mxGeometry x="460" y="610" width="220" height="50" as="geometry"/>
                </mxCell>
                <mxCell id="39" value="Logs de conversión" style="rounded=1;whiteSpace=wrap;html=1;" vertex="1" parent="1">
                    <mxGeometry x="720" y="540" width="220" height="50" as="geometry"/>
                </mxCell>
                <mxCell id="40" value="Soporte Markdown con tablas/listas/enlaces" style="rounded=1;whiteSpace=wrap;html=1;" vertex="1" parent="1">
                    <mxGeometry x="1000" y="540" width="260" height="50" as="geometry"/>
                </mxCell>
                <mxCell id="41" value="Soporte imágenes en Markdown" style="rounded=1;whiteSpace=wrap;html=1;" vertex="1" parent="1">
                    <mxGeometry x="1000" y="610" width="240" height="50" as="geometry"/>
                </mxCell>
                <mxCell id="42" value="Eliminación automática tras retención" style="rounded=1;whiteSpace=wrap;html=1;" vertex="1" parent="1">
                    <mxGeometry x="1280" y="540" width="240" height="50" as="geometry"/>
                </mxCell>
                <mxCell id="43" value="Docker + contenedor base liviano" style="shape=note;whiteSpace=wrap;html=1;fillColor=#fff2cc;" vertex="1" parent="1">
                    <mxGeometry x="400" y="740" width="200" height="60" as="geometry"/>
                </mxCell>
                <mxCell id="44" value="Escalable horizontalmente" style="shape=note;whiteSpace=wrap;html=1;fillColor=#fff2cc;" vertex="1" parent="1">
                    <mxGeometry x="640" y="740" width="200" height="60" as="geometry"/>
                </mxCell>
                <mxCell id="45" value="Inicio &amp;lt; 3s&lt;br&gt;solo documentos ligeros" style="shape=note;whiteSpace=wrap;html=1;fillColor=#fff2cc;" vertex="1" parent="1">
                    <mxGeometry x="880" y="740" width="200" height="60" as="geometry"/>
                </mxCell>
                <mxCell id="46" value="50 conversiones concurrentes" style="shape=note;whiteSpace=wrap;html=1;fillColor=#fff2cc;" vertex="1" parent="1">
                    <mxGeometry x="1120" y="740" width="220" height="60" as="geometry"/>
                </mxCell>
                <mxCell id="47" value="Tamaño máximo contenedor &lt; 150MB" style="shape=note;whiteSpace=wrap;html=1;fillColor=#fff2cc;" vertex="1" parent="1">
                    <mxGeometry x="1380" y="740" width="220" height="60" as="geometry"/>
                </mxCell>
                <mxCell id="48" value="Tiempo de respuesta &lt; 2s (archivos pequeños)" style="shape=note;whiteSpace=wrap;html=1;fillColor=#fff2cc;" vertex="1" parent="1">
                    <mxGeometry x="1640" y="740" width="260" height="60" as="geometry"/>
                </mxCell>
                <mxCell id="49" value="detalles y pasos extra" style="swimlane;horizontal=0;whiteSpace=wrap;html=1;" vertex="1" parent="1">
                    <mxGeometry x="10" y="400" width="2240" height="510" as="geometry"/>
                </mxCell>
            </root>
        </mxGraphModel>
    </diagram>
</mxfile>